<svg width="705" height="612" viewBox="0 0 705 712" fill="none" xmlns="http://www.w3.org/2000/svg">
<path d="M0 414.518C0 408.443 4.92487 403.518 11 403.518H55V645.518H11C4.92487 645.518 0 640.593 0 634.518V414.518Z" fill="#8C7568"/>
<rect x="76" y="370.518" width="67" height="309" rx="11" fill="#8C7568"/>
<path d="M428 697.598C412.8 707.598 397.333 710.098 391.5 710.098C376.3 713.188 363.5 709.052 359 706.598L208 645.598H165V403.098H245.5L443.5 508.598C452.5 516.932 467.6 541.498 456 573.098C444.4 604.698 408.833 605.932 392.5 602.598L259.5 544.598C242.3 543.798 245 556.598 248.5 563.098L369.5 615.598C397.5 630.798 423.5 626.265 433 622.098C491 603.298 486.167 542.265 476.5 514.098L638.5 399.018C691.5 397.018 698.5 424.018 703 433.518C706.6 441.118 703.5 471.518 691.5 483.598C610 550.765 443.2 687.598 428 697.598Z" fill="#8C7568"/>
<path d="M268.447 169.863L314.379 142.9V304.172H268.447V169.863Z" fill="#8C7568"/>
<path fill-rule="evenodd" clip-rule="evenodd" d="M651.442 76.5534H538.936V370.518H651.442C657.517 370.518 662.442 365.593 662.442 359.518V87.5534C662.442 81.4782 657.517 76.5534 651.442 76.5534ZM639.986 302.131H561.391V325.607H639.986V302.131ZM561.391 167.397H639.986V190.873H561.391V167.397ZM639.986 122.485H561.391V145.962H639.986V122.485ZM561.391 212.308H639.986V235.784H561.391V212.308ZM639.986 257.219H561.391V280.696H639.986V257.219Z" fill="#8C7568"/>
<rect x="392.974" y="247.012" width="67.367" height="123.506" fill="#8C7568"/>
<path fill-rule="evenodd" clip-rule="evenodd" d="M516.48 0H336.835V370.518H370.518V235.556C370.518 229.481 375.443 224.556 381.518 224.556H471.796C477.872 224.556 482.796 229.481 482.796 235.556V370.518H516.48V0ZM370.518 168.417H415.43V190.873H370.518V168.417ZM482.796 168.417H437.885V190.873H482.796V168.417ZM370.518 123.506H415.43V145.962H370.518V123.506ZM482.796 123.506H437.885V145.962H482.796V123.506ZM370.518 78.5948H415.43V101.05H370.518V78.5948ZM482.796 78.5948H437.885V101.05H482.796V78.5948Z" fill="#8C7568"/>
<path fill-rule="evenodd" clip-rule="evenodd" d="M207.87 124.47C204.316 126.392 202.101 130.107 202.101 134.147V359.518C202.101 365.593 207.026 370.518 213.101 370.518H315.4L315.4 325.607H258.012C251.937 325.607 247.012 320.682 247.012 314.607V159.727C247.012 155.654 249.263 151.914 252.862 150.007L315.4 116.871L315.4 66.3462L207.87 124.47Z" fill="#8C7568"/>
</svg>
