<svg width="580" height="373" viewBox="0 0 580 673" fill="none" xmlns="http://www.w3.org/2000/svg">
<path d="M338.5 664.5H214M338.5 664.5H448M338.5 664.5L448 556M338.5 664.5V556M571.5 664.5H448M448 664.5V556M448 556H338.5M448 556V450M338.5 556L448 450M338.5 556V450M448 450H338.5M448 450V336.5M338.5 450L448 336.5M338.5 450V336.5M448 336.5H338.5M448 336.5V269.5M338.5 336.5L406 269.5M338.5 336.5V269.5" stroke="#8C7568" stroke-width="17" stroke-linecap="round"/>
<path d="M337.5 78.5V9H446.5M446.5 9V78.5M446.5 9L379.5 78.5" stroke="#8C7568" stroke-width="17" stroke-linecap="round" stroke-linejoin="round"/>
<path fill-rule="evenodd" clip-rule="evenodd" d="M0 119.5C0 113.425 4.92487 108.5 11 108.5H555C561.075 108.5 566 113.425 566 119.5V227.5C566 233.575 561.075 238.5 555 238.5H11C4.92487 238.5 0 233.575 0 227.5V119.5ZM529.5 130.323L458.25 200.5V130.323H529.5ZM240 200.677L311.25 130.5H240V200.677ZM200.25 130.5L129 200.677V130.5H200.25ZM436.25 145.5L365 215.677H436.25V145.5ZM255 215.677L326.25 145.5V215.677H255ZM108.25 145.5L37 215.677H108.25V145.5Z" fill="#8C7568"/>
<path d="M119 426H110.5C110.5 428.396 111.511 430.68 113.284 432.291C115.057 433.902 117.428 434.69 119.812 434.461L119 426ZM122 514V522.5C122.069 522.5 122.138 522.499 122.207 522.497L122 514ZM83.9982 467.827C83.9024 463.133 80.02 459.406 75.3266 459.502C70.6331 459.598 66.906 463.48 67.0018 468.173L83.9982 467.827ZM110.5 230.5V426H127.5V230.5H110.5ZM119.812 434.461C133.197 433.176 142.487 437.154 148.536 443.08C154.752 449.168 158.242 458.006 158.503 467.423C158.764 476.835 155.774 486.24 149.794 493.263C143.947 500.129 134.859 505.184 121.793 505.503L122.207 522.497C139.891 522.066 153.615 514.996 162.737 504.284C171.726 493.728 175.861 480.102 175.497 466.952C175.133 453.806 170.248 440.55 160.432 430.936C150.451 421.158 136.053 415.824 118.188 417.539L119.812 434.461ZM122 505.5C115.966 505.5 106.393 504 98.5009 498.66C91.1054 493.656 84.3437 484.756 83.9982 467.827L67.0018 468.173C67.4563 490.444 76.8613 504.544 88.9741 512.74C100.59 520.6 113.868 522.5 122 522.5V505.5Z" fill="#8C7568"/>
</svg>
