<svg width="613" height="542" viewBox="0 0 613 642" fill="none" xmlns="http://www.w3.org/2000/svg">
<path fill-rule="evenodd" clip-rule="evenodd" d="M463.279 641.562C545.569 641.562 612.279 574.853 612.279 492.562C612.279 410.272 545.569 343.562 463.279 343.562C380.989 343.562 314.279 410.272 314.279 492.562C314.279 574.853 380.989 641.562 463.279 641.562ZM454.673 402.573C450.813 402.356 447.507 405.309 447.29 409.169C447.073 413.029 450.025 416.334 453.885 416.551C470.487 417.487 493.188 423.74 511.566 437.917C526.733 449.618 539.091 466.787 542.706 491.392L525.583 478.042C522.534 475.665 518.136 476.209 515.759 479.258C513.381 482.307 513.926 486.706 516.975 489.083L546.475 512.083C547.975 513.252 549.886 513.761 551.769 513.492C553.651 513.223 555.344 512.2 556.456 510.657L578.456 480.157C580.718 477.022 580.009 472.647 576.874 470.385C573.739 468.123 569.363 468.832 567.102 471.967L556.199 487.082C551.608 459.856 537.487 440.232 520.117 426.832C499.12 410.635 473.571 403.638 454.673 402.573ZM396.69 548.497C393.688 550.934 389.28 550.475 386.844 547.473C370.861 527.78 369.089 497.487 376.4 470.659C381.814 450.793 392.574 431.433 407.948 418.38L390.536 416.523C386.692 416.113 383.908 412.664 384.318 408.82C384.728 404.976 388.177 402.192 392.021 402.602L429.521 406.602C431.387 406.801 433.095 407.741 434.262 409.21C435.428 410.68 435.956 412.556 435.726 414.419L431.226 450.919C430.753 454.756 427.259 457.483 423.422 457.01C419.585 456.537 416.858 453.043 417.332 449.206L420.12 426.588C405.923 437.171 395.228 454.817 389.908 474.34C383.218 498.888 385.697 523.844 397.714 538.651C400.15 541.653 399.692 546.061 396.69 548.497ZM545.975 537.631C548.222 534.485 547.493 530.113 544.348 527.866C541.202 525.619 536.83 526.348 534.583 529.494C527.455 539.472 513.204 555.644 492.702 564.937C475.581 572.697 453.676 575.874 427.006 565.883L447.426 557.543C451.005 556.081 452.721 551.994 451.259 548.415C449.797 544.837 445.711 543.12 442.132 544.582L406.632 559.082C403.078 560.534 401.356 564.577 402.773 568.146L416.273 602.146C417.7 605.739 421.769 607.495 425.362 606.068C428.955 604.642 430.712 600.572 429.285 596.979L422.152 579.014C452.314 590.295 478.034 586.956 498.481 577.688C522.103 566.981 538.102 548.653 545.975 537.631Z" fill="#8C7568"/>
<path d="M298.279 538.562H37.279C26.279 535.729 7.37895 534.962 7.77895 496.562V415.062V67.5623C4.44561 45.0623 10.0789 1.56226 59.2789 7.56226H404.279C415.946 6.56226 439.379 15.1623 439.779 57.5623V326.562M298.279 476.562H55.2789M55.2789 411.562H313.779M373.279 347.562H55.2789M373.279 283.062H55.2789M55.2789 219.062H373.279M55.2789 148.562H242.279" stroke="#8C7568" stroke-width="14" stroke-linecap="round" stroke-linejoin="round"/>
<rect x="103.279" y="44.5623" width="240" height="59" rx="14" stroke="#8C7568" stroke-width="14" stroke-linejoin="round"/>
</svg>
