<svg width="932" height="529" viewBox="0 0 632 629" fill="none" xmlns="http://www.w3.org/2000/svg">
<path fill-rule="evenodd" clip-rule="evenodd" d="M387.053 230.508L212.553 371.718V628.508H308.967C308.697 627.555 308.553 626.548 308.553 625.508V481.508C308.553 475.433 313.478 470.508 319.553 470.508H455.553C461.628 470.508 466.553 475.433 466.553 481.508V628.508H561.553V371.718L387.053 230.508Z" fill="#8C7568"/>
<rect x="324.553" y="488.508" width="125" height="140" fill="#8C7568"/>
<path d="M159.553 368.508L387.553 184.508L613.553 368.508" stroke="#8C7568" stroke-width="36" stroke-linecap="round"/>
<path d="M372.053 184.508L321.053 140.008M321.053 140.008L329.053 131.008M321.053 140.008L312.053 150.008" stroke="#8C7568" stroke-width="15" stroke-linecap="round" stroke-linejoin="round"/>
<path d="M515.553 187.508H561.553V280.508L515.553 243.508V187.508Z" fill="#8C7568"/>
<rect x="71.5656" y="214.578" width="58.7932" height="130.065" transform="rotate(33.3828 71.5656 214.578)" fill="#8C7568"/>
<path fill-rule="evenodd" clip-rule="evenodd" d="M104.307 27.821C147.593 -11.3687 185.465 -0.765515 199.053 9.50821L240.553 37.0082L241.222 36.587L241.238 36.5971C238.291 40.6412 236.553 45.6217 236.553 51.0082C236.553 64.5392 247.522 75.5082 261.053 75.5082C270.008 75.5082 277.84 70.7042 282.114 63.5327L305.88 79.1929L261.257 146.911L237.323 131.14C240.599 126.974 242.553 121.719 242.553 116.008C242.553 102.477 231.584 91.5082 218.053 91.5082C208.775 91.5082 200.702 96.6651 196.543 104.269L196.213 104.051L116.287 225.343L93.375 210.245L173.172 89.1478C177.089 83.2031 178.765 76.0591 177.899 68.9927L177.605 66.5915C176.918 60.9835 174.661 55.6835 171.094 51.3016L165.701 44.6755C161.398 39.3888 155.422 35.7252 148.759 34.288L136.68 31.6826C134.601 31.2343 132.481 31.0083 130.355 31.0083H116.053H113.711C110.176 31.0083 106.69 30.3836 103.409 29.1839L104.307 27.821Z" fill="#8C7568"/>
</svg>
