<svg width="303" height="206" viewBox="0 0 703 706" fill="none" xmlns="http://www.w3.org/2000/svg">
<path fill-rule="evenodd" clip-rule="evenodd" d="M185.802 247.5C180.997 248.946 172.217 253.369 168.5 259C159.642 272.419 61.6786 440.764 48.5942 524.372C43.2282 558.661 39.398 582.441 36.8713 598.128C36.1403 602.667 35.5184 606.528 35 609.77V673.5C35 691.173 49.3269 705.5 67 705.5H636C653.673 705.5 668 691.173 668 673.5V625.255L666 624C665.755 621.642 664.531 614.047 662.131 599.141L662.129 599.129C659.602 583.442 655.772 559.661 650.406 525.372C637.321 441.764 539.995 270.443 531.136 257.023C526.5 250 513.352 247.833 510.5 248L511.029 247.5H185.802ZM351.5 637.5C429.648 637.5 493 574.148 493 496C493 417.852 429.648 354.5 351.5 354.5C273.352 354.5 210 417.852 210 496C210 574.148 273.352 637.5 351.5 637.5Z" fill="#8C7568"/>
<circle cx="351.5" cy="493" r="71.5" fill="#8C7568"/>
<path d="M245 187.5C245 181.425 249.925 176.5 256 176.5H305C311.075 176.5 316 181.425 316 187.5V283.5H245V187.5Z" fill="#8C7568"/>
<path d="M384.5 187.5C384.5 181.425 389.425 176.5 395.5 176.5H444.5C450.575 176.5 455.5 181.425 455.5 187.5V283.5H384.5V187.5Z" fill="#8C7568"/>
<path d="M702.5 150.5C659.3 34.9 464.333 1.83333 373 0L339 51L355.5 94.5C413.5 96.5 456.5 101 501.5 110C537.5 117.2 540.5 149.667 537.5 165C509.9 213.4 543.667 239.5 564 246.5C590.333 247.167 648.1 248.1 668.5 246.5C688.9 244.9 699.667 227.833 702.5 219.5V150.5Z" fill="#8C7568"/>
<path d="M0 150.5C43.2 34.9 239.667 1.83333 331 0H396.5L355 94.5C297 96.5 246 101 201 110C165 117.2 162 149.667 165 165C192.6 213.4 158.833 239.5 138.5 246.5C112.167 247.167 54.4 248.1 34 246.5C13.6 244.9 2.83334 227.833 0 219.5V150.5Z" fill="#8C7568"/>
</svg>
