<svg width="536" height="404" viewBox="0 0 536 704" fill="none" xmlns="http://www.w3.org/2000/svg">
<rect x="144" width="248" height="124" rx="57" fill="#8C7568"/>
<path fill-rule="evenodd" clip-rule="evenodd" d="M102 63C102 55.4493 102.812 48.0885 104.355 41H55C24.6243 41 0 65.6243 0 96V649C0 679.376 24.6243 704 55 704H481C511.376 704 536 679.376 536 649V96C536 65.6243 511.376 41 481 41H431.645C433.188 48.0885 434 55.4493 434 63C434 119.885 387.885 166 331 166H205C148.115 166 102 119.885 102 63ZM269 247C257.402 247 248 256.402 248 268C248 279.598 257.402 289 269 289H433C444.598 289 454 279.598 454 268C454 256.402 444.598 247 433 247H269ZM248 435C248 423.402 257.402 414 269 414H433C444.598 414 454 423.402 454 435C454 446.598 444.598 456 433 456H269C257.402 456 248 446.598 248 435ZM269 581C257.402 581 248 590.402 248 602C248 613.598 257.402 623 269 623H433C444.598 623 454 613.598 454 602C454 590.402 444.598 581 433 581H269ZM122.819 592.517L124.272 591.072L171.911 543.562C179.734 535.759 192.403 535.779 200.202 543.607L201.664 545.075C209.461 552.899 209.437 565.563 201.613 573.359L137.675 637.064C129.851 644.86 117.187 644.837 109.391 637.013L93.8054 621.37L94.1665 621.011C92.9683 620.242 91.8343 619.332 90.788 618.282L87.3129 614.794C79.5164 606.97 79.5392 594.307 87.3636 586.51L88.3212 585.556C96.1457 577.76 108.809 577.783 116.605 585.607L120.08 589.095C121.137 590.155 122.05 591.304 122.819 592.517ZM122.623 426.085L124.076 424.64L171.714 377.13C179.538 369.327 192.207 369.347 200.005 377.175L201.468 378.643C209.264 386.467 209.241 399.131 201.417 406.927L137.479 470.632C129.654 478.428 116.991 478.405 109.195 470.58L93.6092 454.938L93.9703 454.579C92.7722 453.81 91.6381 452.9 90.5918 451.85L87.1168 448.362C79.3203 440.538 79.343 427.875 87.1675 420.078L88.125 419.124C95.9495 411.328 108.613 411.35 116.409 419.175L119.884 422.663C120.941 423.723 121.853 424.872 122.623 426.085ZM122.623 259.085L124.076 257.64L171.714 210.13C179.538 202.327 192.207 202.347 200.005 210.175L201.468 211.643C209.264 219.467 209.241 232.131 201.417 239.927L137.479 303.632C129.654 311.428 116.991 311.405 109.195 303.58L93.6092 287.938L93.9703 287.579C92.7722 286.81 91.6381 285.9 90.5918 284.85L87.1168 281.362C79.3203 273.538 79.343 260.875 87.1675 253.078L88.125 252.124C95.9495 244.328 108.613 244.35 116.409 252.175L119.884 255.663C120.941 256.723 121.853 257.872 122.623 259.085Z" fill="#8C7568"/>
</svg>
