<svg width="32" height="33" viewBox="0 0 32 33" fill="none" xmlns="http://www.w3.org/2000/svg">
<path fill-rule="evenodd" clip-rule="evenodd" d="M16 0.671753C7.16344 0.671753 0 7.8352 0 16.6718C0 25.5083 7.16344 32.6718 16 32.6718C24.8366 32.6718 32 25.5083 32 16.6718C32 7.8352 24.8366 0.671753 16 0.671753ZM12.4822 8.18998C13.3924 8.14856 13.6833 8.13843 16.0008 8.13843H15.9981C18.3164 8.13843 18.6062 8.14856 19.5164 8.18998C20.4249 8.23158 21.0453 8.37541 21.5893 8.58643C22.1511 8.80421 22.6258 9.09577 23.1004 9.57044C23.5751 10.0448 23.8667 10.5209 24.0853 11.0821C24.2951 11.6247 24.4391 12.2448 24.4818 13.1532C24.5227 14.0635 24.5333 14.3543 24.5333 16.6718C24.5333 18.9894 24.5227 19.2795 24.4818 20.1898C24.4391 21.0979 24.2951 21.7181 24.0853 22.2609C23.8667 22.822 23.5751 23.2981 23.1004 23.7724C22.6263 24.247 22.1509 24.5393 21.5898 24.7573C21.0469 24.9683 20.4261 25.1121 19.5176 25.1537C18.6074 25.1951 18.3175 25.2053 15.9997 25.2053C13.6824 25.2053 13.3917 25.1951 12.4815 25.1537C11.5732 25.1121 10.9529 24.9683 10.41 24.7573C9.8491 24.5393 9.37302 24.247 8.89888 23.7724C8.42438 23.2981 8.13282 22.822 7.91468 22.2607C7.70383 21.7181 7.56001 21.098 7.51823 20.1896C7.47699 19.2793 7.46667 18.9894 7.46667 16.6718C7.46667 14.3543 7.47734 14.0633 7.51805 13.1531C7.55895 12.245 7.70295 11.6247 7.91451 11.0819C8.13317 10.5209 8.42473 10.0448 8.8994 9.57044C9.37372 9.09595 9.84982 8.80439 10.4111 8.58643C10.9536 8.37541 11.5737 8.23158 12.4822 8.18998ZM15.7164 9.67611C15.5438 9.67604 15.3839 9.67596 15.2353 9.6762V9.67406C13.6448 9.67584 13.3398 9.68651 12.5526 9.72206C11.7205 9.76029 11.2688 9.89896 10.968 10.0163C10.5698 10.1713 10.2853 10.3562 9.98666 10.6549C9.68799 10.9535 9.50275 11.238 9.34808 11.6362C9.23128 11.937 9.09226 12.3886 9.05421 13.2206C9.01332 14.1202 9.00515 14.389 9.00515 16.6677C9.00515 18.9465 9.01332 19.2167 9.05421 20.1163C9.09208 20.9483 9.23128 21.3999 9.34808 21.7003C9.5031 22.0987 9.68799 22.3825 9.98666 22.6811C10.2853 22.9798 10.5698 23.1647 10.968 23.3194C11.269 23.4362 11.7205 23.5752 12.5526 23.6136C13.4521 23.6545 13.7222 23.6634 16.0008 23.6634C18.2792 23.6634 18.5494 23.6545 19.449 23.6136C20.281 23.5755 20.7329 23.4369 21.0334 23.3195C21.4318 23.1649 21.7153 22.98 22.014 22.6813C22.3127 22.3828 22.4979 22.0993 22.6526 21.701C22.7694 21.4006 22.9084 20.949 22.9464 20.117C22.9873 19.2175 22.9962 18.9472 22.9962 16.6699C22.9962 14.3925 22.9873 14.1223 22.9464 13.2227C22.9086 12.3907 22.7694 11.9392 22.6526 11.6387C22.4976 11.2405 22.3127 10.956 22.014 10.6574C21.7155 10.3587 21.4316 10.1738 21.0334 10.0191C20.7326 9.90233 20.281 9.76331 19.449 9.72526C18.5492 9.68438 18.2792 9.6762 16.0008 9.6762C15.9023 9.6762 15.8076 9.67616 15.7164 9.67611ZM19.5318 12.1168C19.5318 11.5512 19.9905 11.0931 20.5558 11.0931C21.1212 11.0931 21.5799 11.5514 21.5799 12.1168C21.5799 12.6821 21.1212 13.1408 20.5558 13.1408C19.9905 13.1408 19.5318 12.6821 19.5318 12.1168ZM11.6186 16.6718C11.6186 14.2517 13.5807 12.2896 16.0008 12.2896C18.4209 12.2896 20.3824 14.2517 20.3824 16.6718C20.3824 19.0919 18.4209 21.0532 16.0008 21.0532C13.5807 21.0532 11.6186 19.0919 11.6186 16.6718ZM18.8453 16.6718C18.8453 15.1008 17.5717 13.8274 16.0008 13.8274C14.4298 13.8274 13.1563 15.1008 13.1563 16.6718C13.1563 18.2427 14.4298 19.5163 16.0008 19.5163C17.5717 19.5163 18.8453 18.2427 18.8453 16.6718Z" fill="#8C7568"/>
</svg>
