<svg width="452" height="454" viewBox="0 0 452 454" fill="none" xmlns="http://www.w3.org/2000/svg">
<path fill-rule="evenodd" clip-rule="evenodd" d="M226 454C350.816 454 452 352.369 452 227C452 101.631 350.816 0 226 0C101.184 0 0 101.631 0 227C0 352.369 101.184 454 226 454ZM226 446C345.846 446 443 348.398 443 228C443 107.602 345.846 10 226 10C106.154 10 9 107.602 9 228C9 348.398 106.154 446 226 446Z" fill="#7E674A"/>
<path fill-rule="evenodd" clip-rule="evenodd" d="M225.5 433C338.995 433 431 340.771 431 227C431 113.229 338.995 21 225.5 21C112.005 21 20 113.229 20 227C20 340.771 112.005 433 225.5 433ZM225.5 416C329.606 416 414 331.606 414 227.5C414 123.394 329.606 39 225.5 39C121.394 39 37 123.394 37 227.5C37 331.606 121.394 416 225.5 416Z" fill="#7E674A"/>
<path d="M139 206.174V399.995C139 401.775 140.177 403.341 141.886 403.837L202.886 421.518C205.445 422.259 208 420.34 208 417.676V221.656C208 220.31 207.323 219.055 206.199 218.315L150.13 181.402C148.831 180.547 147.154 180.522 145.83 181.339L85.8992 218.328C84.7187 219.056 84 220.345 84 221.732V359.179C84 360.614 84.7691 361.94 86.0154 362.652L88.5154 364.08C91.1821 365.604 94.5 363.679 94.5 360.607V228.73C94.5 227.344 95.2179 226.056 96.3972 225.328L132.897 202.771C135.562 201.125 139 203.041 139 206.174Z" fill="#7E674A"/>
<path d="M244 254.204V415.651C244 417.904 245.859 419.712 248.111 419.65L249.611 419.608C251.776 419.548 253.5 417.775 253.5 415.61V260.69C253.5 259.326 254.195 258.055 255.345 257.32L290.345 234.936C293.007 233.234 296.5 235.146 296.5 238.306V402.905C296.5 406.137 300.134 408.035 302.786 406.187L363.786 363.694C364.86 362.946 365.5 361.72 365.5 360.412V254.136C365.5 252.801 364.834 251.554 363.725 250.812L308.662 213.948C307.348 213.068 305.638 213.045 304.3 213.89L245.863 250.823C244.703 251.556 244 252.832 244 254.204Z" fill="#7E674A"/>
<path d="M305.308 204.846L250.019 238.803C247.37 240.43 243.959 238.545 243.926 235.436L242.576 106.236C242.543 103.09 239.059 101.212 236.413 102.913L188.337 133.819C187.192 134.555 186.5 135.823 186.5 137.184V189C186.5 192.296 182.737 194.178 180.1 192.2L174.1 187.7C173.093 186.945 172.5 185.759 172.5 184.5V128.72C172.5 127.339 173.212 126.056 174.384 125.326L255.261 74.8958C256.619 74.0491 258.351 74.0933 259.665 75.0082L333.287 126.306C334.36 127.054 335 128.28 335 129.588V214.488C335 217.691 331.424 219.595 328.767 217.807L309.634 204.936C308.334 204.061 306.643 204.026 305.308 204.846Z" fill="#7E674A"/>
<path d="M139 206.174V399.995C139 401.775 140.177 403.341 141.886 403.837L202.886 421.518C205.445 422.259 208 420.34 208 417.676V221.656C208 220.31 207.323 219.055 206.199 218.315L150.13 181.402C148.831 180.547 147.154 180.522 145.83 181.339L85.8992 218.328C84.7187 219.056 84 220.345 84 221.732V359.179C84 360.614 84.7691 361.94 86.0154 362.652L88.5154 364.08C91.1821 365.604 94.5 363.679 94.5 360.607V228.73C94.5 227.344 95.2179 226.056 96.3972 225.328L132.897 202.771C135.562 201.125 139 203.041 139 206.174Z" stroke="#7E674A"/>
<path d="M244 254.204V415.651C244 417.904 245.859 419.712 248.111 419.65L249.611 419.608C251.776 419.548 253.5 417.775 253.5 415.61V260.69C253.5 259.326 254.195 258.055 255.345 257.32L290.345 234.936C293.007 233.234 296.5 235.146 296.5 238.306V402.905C296.5 406.137 300.134 408.035 302.786 406.187L363.786 363.694C364.86 362.946 365.5 361.72 365.5 360.412V254.136C365.5 252.801 364.834 251.554 363.725 250.812L308.662 213.948C307.348 213.068 305.638 213.045 304.3 213.89L245.863 250.823C244.703 251.556 244 252.832 244 254.204Z" stroke="#7E674A"/>
<path d="M305.308 204.846L250.019 238.803C247.37 240.43 243.959 238.545 243.926 235.436L242.576 106.236C242.543 103.09 239.059 101.212 236.413 102.913L188.337 133.819C187.192 134.555 186.5 135.823 186.5 137.184V189C186.5 192.296 182.737 194.178 180.1 192.2L174.1 187.7C173.093 186.945 172.5 185.759 172.5 184.5V128.72C172.5 127.339 173.212 126.056 174.384 125.326L255.261 74.8958C256.619 74.0491 258.351 74.0933 259.665 75.0082L333.287 126.306C334.36 127.054 335 128.28 335 129.588V214.488C335 217.691 331.424 219.595 328.767 217.807L309.634 204.936C308.334 204.061 306.643 204.026 305.308 204.846Z" stroke="#7E674A"/>
</svg>
